<?xml version="1.0" encoding="UTF-8" standalone="no"?><!DOCTYPE svg PUBLIC "-//W3C//DTD SVG 1.1//EN" "http://www.w3.org/Graphics/SVG/1.1/DTD/svg11.dtd"><svg width="100%" height="100%" viewBox="0 0 1347 552" version="1.1" xmlns="http://www.w3.org/2000/svg" xmlns:xlink="http://www.w3.org/1999/xlink" xml:space="preserve" xmlns:serif="http://www.serif.com/" style="fill-rule:evenodd;clip-rule:evenodd;stroke-linejoin:round;stroke-miterlimit:1.5;"><g><g><path d="M272.93,288.093c39.751,-0 72.023,32.272 72.023,72.023c0,39.751 -32.272,72.023 -72.023,72.023c-39.751,0 -72.023,-32.272 -72.023,-72.023c-0,-39.751 32.272,-72.023 72.023,-72.023Zm0,27.377c24.641,0 44.646,20.005 44.646,44.646c0,24.641 -20.005,44.646 -44.646,44.646c-24.641,0 -44.646,-20.005 -44.646,-44.646c0,-24.641 20.005,-44.646 44.646,-44.646Z"/><path d="M334.529,54.017l-50.919,253.029" style="fill:none;stroke:#000;stroke-width:26.92px;"/><path d="M228.284,371.09l-174.267,42.832" style="fill:none;stroke:#000;stroke-width:26.92px;"/><path d="M291.124,404.762l37.719,92.555" style="fill:none;stroke:#000;stroke-width:26.92px;"/><path d="M156.366,211.331l90.299,110.472" style="fill:none;stroke:#000;stroke-width:26.92px;"/><path d="M156.366,211.331l178.163,-157.314" style="fill:none;stroke:#000;stroke-width:26.92px;"/><circle cx="156.366" cy="211.331" r="54.017" style="fill:#ea7d3b;"/><circle cx="334.529" cy="54.017" r="54.017" style="fill:#ea7d3b;"/><circle cx="328.843" cy="497.317" r="54.017" style="fill:#ea7d3b;"/><circle cx="54.017" cy="413.922" r="54.017" style="fill:#ea7d3b;"/></g><text x="475.786px" y="431.56px" style="font-family:'Arial-BoldMT', 'Arial', sans-serif;font-weight:700;font-size:445.407px;">C<tspan x="773.692px 1047.02px " y="431.56px 431.56px ">SB</tspan></text></g></svg>